<svg width="32" height="32" viewBox="0 0 32 32" fill="none" xmlns="http://www.w3.org/2000/svg">
<path d="M30.0014 16.3114C30.0014 15.1603 29.9061 14.3203 29.6998 13.4492H16.2871V18.6447H24.1601C24.0014 19.9359 23.1442 21.8803 21.2394 23.1869L21.2127 23.3609L25.4536 26.5805L25.7474 26.6092C28.4458 24.167 30.0014 20.5736 30.0014 16.3114Z" fill="#4285F4"/>
<path d="M16.2863 30.0008C20.1434 30.0008 23.3814 28.7562 25.7466 26.6096L21.2386 23.1873C20.0323 24.0117 18.4132 24.5873 16.2863 24.5873C12.5086 24.5873 9.30225 22.1451 8.15929 18.7695L7.99176 18.7835L3.58208 22.128L3.52441 22.2851C5.87359 26.8584 10.699 30.0008 16.2863 30.0008Z" fill="#34A853"/>
<path d="M8.15964 18.7699C7.85806 17.8988 7.68352 16.9654 7.68352 16.001C7.68352 15.0365 7.85806 14.1032 8.14377 13.2321L8.13578 13.0466L3.67083 9.64844L3.52475 9.71653C2.55654 11.6143 2.00098 13.7455 2.00098 16.001C2.00098 18.2566 2.55654 20.3876 3.52475 22.2854L8.15964 18.7699Z" fill="#FBBC05"/>
<path d="M16.2864 7.4133C18.9689 7.4133 20.7784 8.54885 21.8102 9.4978L25.8419 5.64C23.3658 3.38445 20.1435 2 16.2864 2C10.699 2 5.8736 5.1422 3.52441 9.71549L8.14345 13.2311C9.30229 9.85555 12.5086 7.4133 16.2864 7.4133Z" fill="#EB4335"/>
</svg>
