<svg width="33" height="32" viewBox="0 0 33 32" fill="none" xmlns="http://www.w3.org/2000/svg">
<path d="M30.5014 16.3114C30.5014 15.1603 30.4061 14.3203 30.1998 13.4492H16.7871V18.6447H24.6601C24.5014 19.9359 23.6442 21.8803 21.7394 23.1869L21.7127 23.3609L25.9536 26.5805L26.2474 26.6092C28.9458 24.167 30.5014 20.5736 30.5014 16.3114Z" fill="#4285F4"/>
<path d="M16.7862 30.0008C20.6433 30.0008 23.8814 28.7562 26.2465 26.6096L21.7386 23.1873C20.5322 24.0117 18.9132 24.5873 16.7862 24.5873C13.0085 24.5873 9.80219 22.1451 8.65923 18.7695L8.4917 18.7835L4.08202 22.128L4.02435 22.2851C6.37353 26.8584 11.1989 30.0008 16.7862 30.0008Z" fill="#34A853"/>
<path d="M8.66007 18.7699C8.35848 17.8988 8.18395 16.9654 8.18395 16.001C8.18395 15.0365 8.35849 14.1032 8.6442 13.2321L8.63621 13.0466L4.17126 9.64844L4.02518 9.71653C3.05696 11.6143 2.5014 13.7455 2.5014 16.001C2.5014 18.2566 3.05696 20.3876 4.02518 22.2854L8.66007 18.7699Z" fill="#FBBC05"/>
<path d="M16.7863 7.4133C19.4688 7.4133 21.2783 8.54885 22.3101 9.4978L26.3418 5.64C23.8657 3.38445 20.6434 2 16.7863 2C11.199 2 6.37354 5.1422 4.02435 9.71549L8.64339 13.2311C9.80223 9.85555 13.0086 7.4133 16.7863 7.4133Z" fill="#EB4335"/>
</svg>
