<svg width="97" height="96" viewBox="0 0 97 96" fill="none" xmlns="http://www.w3.org/2000/svg">
<circle cx="48.5" cy="48" r="48" fill="#FFECF9"/>
<mask id="mask0_49_44567" style="mask-type:alpha" maskUnits="userSpaceOnUse" x="0" y="0" width="97" height="96">
<circle cx="48.5" cy="48" r="48" fill="#FFECF9"/>
</mask>
<g mask="url(#mask0_49_44567)">
<path d="M60.4845 26.2168C60.3863 16.3345 60.3127 14.4177 60.3127 14.4177C60.3127 13.8537 60.1122 13.3592 59.7235 12.9505C59.3471 12.5541 58.7866 12.268 58.1525 12.1413C57.6942 12.0514 55.4154 12.0432 54.908 12.1127C54.1307 12.223 53.4106 12.5009 52.7683 12.9382C52.1587 13.351 51.6677 13.8946 51.3895 14.4668C51.1972 14.8591 51.1031 15.2392 51.1031 15.6356V28.4278V30.0176C51.1031 32.1878 48.9306 34.2599 46.2549 34.6359C44.8312 34.8361 43.4606 34.5255 42.5032 33.7858C41.6768 33.1441 41.2185 32.2409 41.2185 31.2355V28.4237V26.2086V16.8495C41.2185 16.2855 41.0181 15.7909 40.6294 15.3822C40.2489 14.9858 39.6925 14.6997 39.0583 14.573C38.6001 14.4831 38.1092 14.4749 37.6018 14.5444C36.8245 14.6548 34.3165 14.9327 33.6742 15.37C33.0646 15.7828 32.5736 16.3263 32.2954 16.8985C32.1031 17.2908 32.009 17.6709 32.009 18.0674V26.3925H32.0008C31.9436 30.3446 30.0738 39.9121 28.425 45.7647C26.8253 51.4374 26.0234 57.2981 26.0234 63.1914V88.3303C26.0234 95.0452 29.0674 101.404 34.3001 105.618L34.5334 105.806C42.8101 112.472 54.6503 112.358 62.792 105.524C67.8202 101.302 70.725 95.0779 70.725 88.5142V69.9799C70.725 56.8362 67.6279 43.9787 62.2642 32.0039C61.761 30.8963 60.5213 29.801 60.4845 26.2168Z" fill="#0071CE"/>
<mask id="mask1_49_44567" style="mask-type:alpha" maskUnits="userSpaceOnUse" x="26" y="79" width="45" height="32">
<path d="M26.0195 79.168V88.3473C26.0195 95.0621 29.0635 101.421 34.2962 105.635L34.5294 105.823C42.8062 112.489 54.6464 112.374 62.7881 105.541C67.8163 101.319 70.7211 95.0948 70.7211 88.5312V80.4717C65.5579 84.0028 58.9504 86.124 51.7457 86.124C40.8014 86.1281 31.2278 86.4673 26.0195 79.168Z" fill="#19D3C5"/>
</mask>
<g mask="url(#mask1_49_44567)">
<path d="M26.0195 79.168V88.3473C26.0195 95.0621 29.0635 101.421 34.2962 105.635L34.5294 105.823C42.8062 112.489 54.6464 112.374 62.7881 105.541C67.8163 101.319 70.7211 95.0948 70.7211 88.5312V80.4717C65.5579 84.0028 58.9504 86.124 51.7457 86.124C40.8014 86.1281 31.2278 86.4673 26.0195 79.168Z" fill="#19D3C5"/>
<path d="M33.7468 78.2383L35.3384 81.4588L38.8978 81.9738L36.3203 84.4831L36.9299 88.0265L33.7468 86.355L30.5597 88.0265L31.1693 84.4831L28.5918 81.9738L32.1512 81.4588L33.7468 78.2383Z" fill="#0071CE"/>
<path d="M30.0494 90.0586L31.6409 93.2832L35.2003 93.7982L32.6269 96.3076L33.2324 99.8509L30.0494 98.1753L26.8664 99.8509L27.4719 96.3076L24.8984 93.7982L28.4579 93.2832L30.0494 90.0586Z" fill="#0071CE"/>
<path d="M44.397 90.0586L45.9886 93.2832L49.548 93.7982L46.9746 96.3076L47.5801 99.8509L44.397 98.1753L41.214 99.8509L41.8236 96.3076L39.2461 93.7982L42.8055 93.2832L44.397 90.0586Z" fill="#0071CE"/>
<path d="M55.7595 80.7969L57.5188 84.373L61.4546 84.9451L58.6071 87.7324L59.2822 91.6641L55.7595 89.8045L52.241 91.6641L52.912 87.7324L50.0645 84.9451L54.0003 84.373L55.7595 80.7969Z" fill="#0071CE"/>
<path d="M66.9615 91.5625L68.553 94.783L72.1124 95.3021L69.5349 97.8074L70.1445 101.351L66.9615 99.6792L63.7785 101.351L64.384 97.8074L61.8105 95.3021L65.37 94.783L66.9615 91.5625Z" fill="#0071CE"/>
<path d="M70.7254 77.8555L72.3169 81.076L75.8763 81.595L73.2988 84.1003L73.9084 87.6437L70.7254 85.9722L67.5382 87.6437L68.1478 84.1003L65.5703 81.595L69.1297 81.076L70.7254 77.8555Z" fill="#0071CE"/>
</g>
<path d="M27.992 60.9979C27.992 60.9979 22.8042 57.6793 20.4395 43.1992" stroke="black" stroke-width="2" stroke-miterlimit="10" stroke-linecap="round"/>
<path d="M18.168 44.3697C21.7724 49.3435 23.2044 43.1641 23.2044 43.1641" stroke="black" stroke-width="2" stroke-miterlimit="10" stroke-linecap="round"/>
<path fill-rule="evenodd" clip-rule="evenodd" d="M42.8257 52.0847H34.8803C32.7979 52.0847 31.0918 50.3804 31.0918 48.3001C31.0918 46.2199 32.7979 44.5156 34.8803 44.5156H42.8257C44.9081 44.5156 46.6142 46.2199 46.6142 48.3001C46.6142 50.3845 44.9081 52.0847 42.8257 52.0847Z" fill="white"/>
<path d="M38.8565 52.037C40.9194 52.037 42.5918 50.3664 42.5918 48.3056C42.5918 46.2448 40.9194 44.5742 38.8565 44.5742C36.7935 44.5742 35.1211 46.2448 35.1211 48.3056C35.1211 50.3664 36.7935 52.037 38.8565 52.037Z" fill="#231F20"/>
<path fill-rule="evenodd" clip-rule="evenodd" d="M62.7221 52.0847H54.7768C52.6944 52.0847 50.9883 50.3804 50.9883 48.3001C50.9883 46.2199 52.6944 44.5156 54.7768 44.5156H62.7221C64.8046 44.5156 66.5107 46.2199 66.5107 48.3001C66.5107 50.3845 64.8087 52.0847 62.7221 52.0847Z" fill="white"/>
<path d="M58.7529 52.037C60.8159 52.037 62.4883 50.3664 62.4883 48.3056C62.4883 46.2448 60.8159 44.5742 58.7529 44.5742C56.69 44.5742 55.0176 46.2448 55.0176 48.3056C55.0176 50.3664 56.69 52.037 58.7529 52.037Z" fill="#231F20"/>
<path d="M52.5308 57.6133C51.6839 58.4879 50.6652 58.9988 49.5687 58.9988C48.4968 58.9988 47.5026 58.5124 46.668 57.6746" stroke="white" stroke-width="1.9073" stroke-miterlimit="10" stroke-linecap="round"/>
<path d="M33.7485 60.3205C36.9254 60.3205 39.5008 59.0341 39.5008 57.4473C39.5008 55.8606 36.9254 54.5742 33.7485 54.5742C30.5715 54.5742 27.9961 55.8606 27.9961 57.4473C27.9961 59.0341 30.5715 60.3205 33.7485 60.3205Z" fill="#F664CD"/>
<path d="M63.5493 59.7697C66.7262 59.7697 69.3016 58.4834 69.3016 56.8966C69.3016 55.3098 66.7262 54.0234 63.5493 54.0234C60.3723 54.0234 57.7969 55.3098 57.7969 56.8966C57.7969 58.4834 60.3723 59.7697 63.5493 59.7697Z" fill="#F664CD"/>
<path d="M41.2271 21.5305V16.8591C41.2271 16.2951 41.0266 15.8006 40.638 15.3919C40.2575 14.9955 39.701 14.7094 39.0669 14.5827C38.6087 14.4928 38.1177 14.4846 37.6104 14.5541C36.833 14.6644 34.3251 14.9423 33.6827 15.3796C33.0731 15.7924 32.5822 16.336 32.304 16.9082C32.1117 17.3005 32.0176 17.6806 32.0176 18.077V25.0044C32.2671 25.0208 32.5126 25.0289 32.7663 25.0289C36.0148 25.033 38.981 23.7089 41.2271 21.5305Z" fill="#19D3C5"/>
<path d="M59.7278 12.9505C59.3514 12.5541 58.7909 12.268 58.1567 12.1413C57.6985 12.0514 55.4197 12.0432 54.9123 12.1127C54.135 12.223 53.4149 12.5009 52.7726 12.9382C52.163 13.351 51.672 13.8946 51.3938 14.4668C51.2015 14.8591 51.1074 15.2392 51.1074 15.6356V21.5208C52.0075 21.7415 52.9444 21.8601 53.9059 21.8601C56.287 21.8601 58.5127 21.1489 60.4151 19.9147C60.3538 15.4517 60.3169 14.4136 60.3169 14.4136C60.3129 13.8537 60.1165 13.3592 59.7278 12.9505Z" fill="#19D3C5"/>
<path d="M68.0878 66.6088C68.0878 66.6088 62.1186 68.1237 49.9375 59.9453" stroke="black" stroke-width="2" stroke-miterlimit="10" stroke-linecap="round"/>
<path d="M49.237 62.4027C55.3308 63.175 51.802 57.9039 51.802 57.9039" stroke="black" stroke-width="2" stroke-miterlimit="10" stroke-linecap="round"/>
</g>
</svg>
