<svg width="25" height="24" viewBox="0 0 25 24" fill="none" xmlns="http://www.w3.org/2000/svg">
<path d="M11.7969 3.5625H13.2031C13.3281 3.5625 13.3906 3.625 13.3906 3.75V20.25C13.3906 20.375 13.3281 20.4375 13.2031 20.4375H11.7969C11.6719 20.4375 11.6094 20.375 11.6094 20.25V3.75C11.6094 3.625 11.6719 3.5625 11.7969 3.5625Z" fill="#7B61FF"/>
<path d="M4.625 11.1094H20.375C20.5 11.1094 20.5625 11.1719 20.5625 11.2969V12.7031C20.5625 12.8281 20.5 12.8906 20.375 12.8906H4.625C4.5 12.8906 4.4375 12.8281 4.4375 12.7031V11.2969C4.4375 11.1719 4.5 11.1094 4.625 11.1094Z" fill="#7B61FF"/>
</svg>
