<svg width="16" height="16" viewBox="0 0 16 16" fill="none" xmlns="http://www.w3.org/2000/svg">
<path d="M8.76933 7.9987L12.6385 3.51956C12.7033 3.44512 12.6488 3.33203 12.5486 3.33203H11.3723C11.3031 3.33203 11.2367 3.36209 11.191 3.41363L7.99992 7.10831L4.8088 3.41363C4.76458 3.36209 4.69825 3.33203 4.6275 3.33203H3.45129C3.35106 3.33203 3.29652 3.44512 3.36138 3.51956L7.23051 7.9987L3.36138 12.4778C3.34685 12.4944 3.33753 12.5147 3.33452 12.5363C3.33151 12.5579 3.33495 12.5799 3.34441 12.5996C3.35388 12.6193 3.36898 12.636 3.38793 12.6477C3.40687 12.6594 3.42886 12.6655 3.45129 12.6654H4.6275C4.69678 12.6654 4.76311 12.6353 4.8088 12.5838L7.99992 8.88909L11.191 12.5838C11.2353 12.6353 11.3016 12.6654 11.3723 12.6654H12.5486C12.6488 12.6654 12.7033 12.5523 12.6385 12.4778L8.76933 7.9987Z" fill="#262626"/>
</svg>
