<svg width="16" height="16" viewBox="0 0 16 16" fill="none" xmlns="http://www.w3.org/2000/svg">
<path d="M5.62488 2.875H5.49988C5.56863 2.875 5.62488 2.81875 5.62488 2.75V2.875H10.3749V2.75C10.3749 2.81875 10.4311 2.875 10.4999 2.875H10.3749V4H11.4999V2.75C11.4999 2.19844 11.0514 1.75 10.4999 1.75H5.49988C4.94832 1.75 4.49988 2.19844 4.49988 2.75V4H5.62488V2.875ZM13.4999 4H2.49988C2.22332 4 1.99988 4.22344 1.99988 4.5V5C1.99988 5.06875 2.05613 5.125 2.12488 5.125H3.06863L3.45457 13.2969C3.47957 13.8297 3.92019 14.25 4.453 14.25H11.5468C12.0811 14.25 12.5202 13.8313 12.5452 13.2969L12.9311 5.125H13.8749C13.9436 5.125 13.9999 5.06875 13.9999 5V4.5C13.9999 4.22344 13.7764 4 13.4999 4ZM11.4264 13.125H4.57332L4.19519 5.125H11.8046L11.4264 13.125Z" fill="#262626"/>
</svg>
