<svg width="73" height="33" viewBox="0 0 73 33" fill="none" xmlns="http://www.w3.org/2000/svg">
<path d="M9.53067 0L7.41551 12.7229L6.01823 22.5132H10.666C11.203 23.7578 11.7242 24.4263 13.0526 25.4458H0L4.23032 0H9.53067Z" fill="#2C6CD6"/>
<path d="M18.2059 25.8185C16.2567 25.8185 14.6434 25.4044 13.366 24.5761C12.0886 23.7395 11.1886 22.5798 10.666 21.0971C10.1517 19.6062 10.0564 17.8709 10.3798 15.8912C10.695 13.9364 11.3503 12.2259 12.3457 10.7598C13.3411 9.29367 14.606 8.15474 16.1406 7.343C17.6751 6.52297 19.4045 6.11295 21.3289 6.11295C23.2699 6.11295 24.8791 6.53125 26.1565 7.36785C27.4339 8.19616 28.3338 9.3558 28.8564 10.8468C29.379 12.3377 29.4785 14.073 29.155 16.0527C28.8315 17.9992 28.1679 19.7056 27.1643 21.1717C26.1606 22.6378 24.8957 23.7809 23.3694 24.6009C21.8432 25.4126 20.122 25.8185 18.2059 25.8185ZM18.7285 21.7184C19.6244 21.7184 20.4165 21.4657 21.105 20.9605C21.8017 20.4469 22.3782 19.7511 22.8344 18.8731C23.2989 17.9868 23.6224 16.9846 23.8049 15.8663C23.9874 14.7647 23.9998 13.7873 23.8422 12.9341C23.6846 12.0727 23.3528 11.3934 22.8469 10.8965C22.3492 10.3995 21.6649 10.151 20.7939 10.151C19.8981 10.151 19.1018 10.4078 18.405 10.9213C17.7083 11.4266 17.1318 12.1224 16.6756 13.0087C16.2194 13.895 15.9 14.9014 15.7175 16.0279C15.5433 17.1212 15.5309 18.0986 15.6802 18.9601C15.8295 19.8133 16.1571 20.4883 16.6631 20.9853C17.1691 21.474 17.8576 21.7184 18.7285 21.7184Z" fill="#2C6CD6"/>
<path d="M38.4493 33C36.724 33 35.2848 32.7639 34.1319 32.2918C32.9872 31.8279 32.1163 31.1943 31.519 30.3908C30.9301 29.5873 30.6066 28.6845 30.5485 27.6822L35.5752 27.0237C35.6664 27.413 35.8406 27.7733 36.0977 28.1047C36.3632 28.436 36.7406 28.7011 37.23 28.8998C37.7277 29.0986 38.3705 29.198 39.1585 29.198C40.3115 29.198 41.3151 28.9164 42.1695 28.3532C43.0239 27.7982 43.5506 26.8663 43.7496 25.5576L44.322 22.0663H44.098C43.7828 22.5964 43.3515 23.0975 42.804 23.5697C42.2649 24.0418 41.6054 24.427 40.8257 24.7252C40.0543 25.0233 39.1626 25.1724 38.1507 25.1724C36.7074 25.1724 35.4549 24.8411 34.3932 24.1785C33.3397 23.5075 32.5766 22.4846 32.1038 21.1096C31.6393 19.7263 31.5812 17.9785 31.9296 15.8663C32.2946 13.7044 32.9499 11.8987 33.8955 10.4492C34.8411 8.99962 35.9609 7.91453 37.2549 7.1939C38.5488 6.47327 39.8967 6.11295 41.2985 6.11295C42.3686 6.11295 43.1924 6.36145 43.9997 6.36145C44.8071 6.36145 44.6262 6.36145 45.4169 6.36145C46.0739 6.36145 45.6006 6.36145 46.1759 6.36145H46.9099H52.173L48.9629 25.6322C48.7058 27.2639 48.0878 28.6224 47.109 29.7075C46.1385 30.8008 44.9068 31.6209 43.4137 32.1675C41.9207 32.7225 40.2659 33 38.4493 33ZM40.44 21.1965C41.2861 21.1965 42.0451 20.9853 42.7169 20.5629C43.3971 20.1322 43.9653 19.5192 44.4215 18.724C44.8777 17.9206 45.1971 16.9597 45.3796 15.8415C45.562 14.7233 45.5579 13.7541 45.3671 12.9341C45.1846 12.1058 44.828 11.4639 44.2971 11.0083C43.7745 10.5527 43.0861 10.3249 42.2317 10.3249C41.3525 10.3249 40.581 10.561 39.9175 11.0331C39.2539 11.497 38.7023 12.1431 38.2627 12.9714C37.8313 13.7997 37.5286 14.7564 37.3544 15.8415C37.1719 16.9431 37.1636 17.8957 37.3295 18.6992C37.5037 19.4944 37.8479 20.1114 38.3622 20.5504C38.8765 20.9812 39.5691 21.1965 40.44 21.1965Z" fill="#2C6CD6"/>
<path d="M61.8654 25.8185C59.9161 25.8185 58.3028 25.4044 57.0254 24.5761C55.748 23.7395 54.848 22.5798 54.3255 21.0971C53.8112 19.6062 53.7158 17.8709 54.0393 15.8912C54.3545 13.9364 55.0098 12.2259 56.0051 10.7598C57.0005 9.29367 58.2655 8.15474 59.8 7.343C61.3345 6.52297 63.064 6.11295 64.9884 6.11295C66.9293 6.11295 68.5385 6.53125 69.8159 7.36785C71.0933 8.19616 71.9933 9.3558 72.5159 10.8468C73.0384 12.3377 73.138 14.073 72.8145 16.0527C72.491 17.9992 71.8274 19.7056 70.8237 21.1717C69.8201 22.6378 68.5551 23.7809 67.0289 24.6009C65.5026 25.4126 63.7815 25.8185 61.8654 25.8185ZM62.388 21.7184C63.2838 21.7184 64.0759 21.4657 64.7644 20.9605C65.4612 20.4469 66.0377 19.7511 66.4939 18.8731C66.9584 17.9868 67.2819 16.9846 67.4643 15.8663C67.6468 14.7647 67.6593 13.7873 67.5017 12.9341C67.3441 12.0727 67.0123 11.3934 66.5063 10.8965C66.0086 10.3995 65.3243 10.151 64.4534 10.151C63.5575 10.151 62.7612 10.4078 62.0645 10.9213C61.3677 11.4266 60.7912 12.1224 60.335 13.0087C59.8788 13.895 59.5594 14.9014 59.377 16.0279C59.2028 17.1212 59.1903 18.0986 59.3396 18.9601C59.4889 19.8133 59.8166 20.4883 60.3226 20.9853C60.8285 21.474 61.517 21.7184 62.388 21.7184Z" fill="#2C6CD6"/>
</svg>
