<svg width="117" height="117" viewBox="0 0 117 117" fill="none" xmlns="http://www.w3.org/2000/svg">
<mask id="mask0_49_39390" style="mask-type:alpha" maskUnits="userSpaceOnUse" x="0" y="0" width="117" height="117">
<circle cx="58.5" cy="58.5" r="58.5" fill="#D9D9D9"/>
</mask>
<g mask="url(#mask0_49_39390)">
<circle cx="58.5" cy="60.5" r="80.5" fill="#E1F8FF"/>
<path d="M74.6806 24.4243C74.5502 11.5547 74.4559 9.05759 74.4559 9.05759C74.4559 8.32187 74.1986 7.68039 73.6912 7.14762C73.1983 6.63298 72.4735 6.25969 71.6472 6.0966C71.0528 5.98062 68.0882 5.96975 67.4249 6.06035C66.4138 6.20532 65.4787 6.56775 64.6415 7.13313C63.8478 7.67314 63.2099 8.37986 62.8475 9.12283C62.5975 9.63022 62.4779 10.1304 62.4779 10.645V27.3092V29.3786C62.4779 32.2055 59.651 34.902 56.1717 35.3949C54.3161 35.6558 52.5366 35.2535 51.2899 34.2859C50.2135 33.4523 49.6191 32.2744 49.6191 30.9661V27.3092V24.428V12.236C49.6155 11.5003 49.3618 10.8588 48.8544 10.3261C48.3615 9.81143 47.633 9.43814 46.8103 9.27505C46.2159 9.15907 45.5781 9.1482 44.9148 9.2388C43.9037 9.38377 40.6419 9.7462 39.8047 10.3116C39.011 10.8516 38.3731 11.5583 38.0107 12.3013C37.7606 12.8087 37.641 13.3088 37.641 13.8235V24.6635H37.6301C37.5577 29.8136 35.1222 42.27 32.9766 49.8954C30.8963 57.2816 29.8525 64.9179 29.8525 72.5903V105.332C29.8525 114.081 33.8102 122.355 40.6201 127.849L40.9246 128.092C51.6921 136.775 67.0987 136.623 77.6887 127.726C84.2341 122.228 88.0106 114.12 88.0106 105.574V81.4371C88.0106 64.3199 83.984 47.5759 77.0038 31.9772C76.3442 30.5167 74.7314 29.0923 74.6806 24.4243Z" fill="#FFD7EF"/>
<path d="M29.8455 93.3828V105.336C29.8455 114.084 33.8031 122.359 40.613 127.853L40.9175 128.096C51.6851 136.779 67.0917 136.627 77.6817 127.73C84.227 122.232 88.0035 114.124 88.0035 105.578V95.0826C81.2878 99.6817 72.6911 102.443 63.3152 102.443C49.0756 102.443 36.6228 102.889 29.8455 93.3828Z" fill="#CA79C6"/>
<path fill-rule="evenodd" clip-rule="evenodd" d="M51.7137 58.1121H41.3738C38.6629 58.1121 36.4485 55.8941 36.4485 53.1868C36.4485 50.4758 38.6665 48.2578 41.3738 48.2578H51.7101C54.421 48.2578 56.6391 50.4758 56.6391 53.1868C56.6391 55.8941 54.421 58.1121 51.7137 58.1121Z" fill="white"/>
<path d="M46.5454 58.0411C49.2276 58.0411 51.4019 55.8667 51.4019 53.1846C51.4019 50.5024 49.2276 48.3281 46.5454 48.3281C43.8633 48.3281 41.689 50.5024 41.689 53.1846C41.689 55.8667 43.8633 58.0411 46.5454 58.0411Z" fill="#6B686A"/>
<path fill-rule="evenodd" clip-rule="evenodd" d="M77.5983 58.1121H67.262C64.5511 58.1121 62.3367 55.8941 62.3367 53.1868C62.3367 50.4758 64.5547 48.2578 67.262 48.2578H77.5983C80.3092 48.2578 82.5273 50.4758 82.5273 53.1868C82.5236 55.8941 80.3056 58.1121 77.5983 58.1121Z" fill="white"/>
<path d="M72.4302 58.0411C75.1124 58.0411 77.2867 55.8667 77.2867 53.1846C77.2867 50.5024 75.1124 48.3281 72.4302 48.3281C69.748 48.3281 67.5737 50.5024 67.5737 53.1846C67.5737 55.8667 69.748 58.0411 72.4302 58.0411Z" fill="#6B686A"/>
<path d="M56.7082 67.1211C57.8099 65.9831 59.1364 65.3162 60.5643 65.3162C61.956 65.3162 63.2535 65.9505 64.3372 67.0377" stroke="white" stroke-width="2.801" stroke-miterlimit="10" stroke-linecap="round"/>
<path d="M39.8988 68.8431C44.0321 68.8431 47.3829 67.167 47.3829 65.0993C47.3829 63.0316 44.0321 61.3555 39.8988 61.3555C35.7655 61.3555 32.4148 63.0316 32.4148 65.0993C32.4148 67.167 35.7655 68.8431 39.8988 68.8431Z" fill="#EF6AC7"/>
<path d="M78.6671 68.1283C82.8005 68.1283 86.1512 66.4521 86.1512 64.3845C86.1512 62.3168 82.8005 60.6406 78.6671 60.6406C74.5338 60.6406 71.1831 62.3168 71.1831 64.3845C71.1831 66.4521 74.5338 68.1283 78.6671 68.1283Z" fill="#EF6AC7"/>
<path d="M49.6297 18.3239V12.2388C49.6261 11.5031 49.3724 10.8616 48.865 10.3288C48.3721 9.81417 47.6436 9.43725 46.8209 9.27778C46.2265 9.16181 45.5887 9.14731 44.9254 9.24154C43.9143 9.38651 40.6525 9.74893 39.8153 10.3143C39.0216 10.8543 38.3837 11.561 38.0213 12.304C37.7712 12.8114 37.6516 13.3115 37.6516 13.8262V22.8505C37.9742 22.8723 38.2967 22.8831 38.6229 22.8831C42.8488 22.8831 46.7086 21.158 49.6297 18.3239Z" fill="#6B686A"/>
<path d="M73.6982 7.14912C73.2053 6.63448 72.4805 6.26119 71.6542 6.09809C71.0598 5.98212 68.0952 5.96762 67.4319 6.06185C66.4208 6.20682 65.4857 6.56924 64.6485 7.13462C63.8548 7.67463 63.217 8.38136 62.8545 9.12433C62.6045 9.63172 62.4849 10.1319 62.4849 10.6465V18.3117C63.6555 18.5981 64.8769 18.7539 66.1272 18.7539C69.2223 18.7539 72.1181 17.8297 74.597 16.2206C74.5173 10.4073 74.4666 9.05547 74.4666 9.05547C74.4593 8.32337 74.202 7.68188 73.6982 7.14912Z" fill="#6B686A"/>
<path d="M29.0002 76.4191C29.0002 76.4191 35.8314 80.6107 54.1442 75.1594" stroke="#6B686A" stroke-width="3" stroke-miterlimit="10" stroke-linecap="round"/>
<path d="M54.0608 78.4813C46.1842 77.0846 52.6159 71.8987 52.6159 71.8987" stroke="#6B686A" stroke-width="3" stroke-miterlimit="10" stroke-linecap="round"/>
<path d="M89.0002 78.2656C89.0002 78.2656 81.7837 81.7523 64.1087 74.4951" stroke="#6B686A" stroke-width="3" stroke-miterlimit="10" stroke-linecap="round"/>
<path d="M63.8587 77.8102C71.8355 77.209 65.9553 71.4053 65.9553 71.4053" stroke="#6B686A" stroke-width="3" stroke-miterlimit="10" stroke-linecap="round"/>
<path d="M54.5588 41.6339C54.5588 41.5053 54.6549 41.3971 54.7825 41.3818L58.5029 40.9353C58.9063 40.8869 59.3139 40.8836 59.7181 40.9254L64.227 41.3918C64.3596 41.4055 64.4604 41.5173 64.4604 41.6506C64.4604 41.8114 64.31 41.9424 64.1386 41.9105C60.5867 41.2479 58.2645 41.1998 54.8847 41.8892C54.7102 41.9248 54.5588 41.7919 54.5588 41.6339Z" fill="#A8A8A8" stroke="#6B686A"/>
<circle cx="43.1574" cy="49.8461" r="13.9203" stroke="#6B686A" stroke-width="2"/>
<circle cx="75.4582" cy="49.8461" r="13.9203" stroke="#6B686A" stroke-width="2"/>
<path d="M36.4224 45.49C38.8415 45.8495 44.9498 45.3821 50.0299 40.6367" stroke="#6B686A" stroke-width="2" stroke-linecap="round" stroke-linejoin="round"/>
<path d="M82.1931 45.49C79.774 45.8495 73.6657 45.3821 68.5856 40.6367" stroke="#6B686A" stroke-width="2" stroke-linecap="round" stroke-linejoin="round"/>
</g>
</svg>
