<svg width="117" height="117" viewBox="0 0 117 117" fill="none" xmlns="http://www.w3.org/2000/svg">
<mask id="mask0_49_47004" style="mask-type:alpha" maskUnits="userSpaceOnUse" x="0" y="0" width="117" height="117">
<circle cx="58.5" cy="58.5" r="58.5" fill="#D9D9D9"/>
</mask>
<g mask="url(#mask0_49_47004)">
<circle cx="58.5" cy="60.5" r="80.5" fill="#E1F8FF"/>
<path d="M74.6797 24.4263C74.5492 11.5566 74.455 9.05955 74.455 9.05955C74.455 8.32383 74.1976 7.68234 73.6902 7.14958C73.1973 6.63494 72.4725 6.26164 71.6462 6.09855C71.0518 5.98257 68.0872 5.9717 67.424 6.06231C66.4128 6.20728 65.4777 6.5697 64.6405 7.13508C63.8468 7.67509 63.209 8.38181 62.8465 9.12478C62.5965 9.63217 62.4769 10.1323 62.4769 10.647V27.3112V29.3806C62.4769 32.2075 59.65 34.9039 56.1707 35.3968C54.3151 35.6578 52.5356 35.2555 51.2889 34.2878C50.2125 33.4542 49.6181 32.2764 49.6181 30.968V27.3112V24.4299V12.238C49.6145 11.5023 49.3608 10.8608 48.8534 10.328C48.3605 9.81339 47.632 9.44009 46.8093 9.277C46.215 9.16102 45.5771 9.15015 44.9139 9.24076C43.9027 9.38573 40.6409 9.74815 39.8037 10.3135C39.01 10.8535 38.3721 11.5603 38.0097 12.3032C37.7596 12.8106 37.64 13.3108 37.64 13.8254V24.6655H37.6292C37.5567 29.8155 35.1212 42.272 32.9756 49.8974C30.8953 57.2835 29.8516 64.9198 29.8516 72.5923V105.334C29.8516 114.082 33.8092 122.357 40.6191 127.851L40.9236 128.094C51.6912 136.777 67.0978 136.625 77.6878 127.728C84.2331 122.23 88.0096 114.122 88.0096 105.576V81.439C88.0096 64.3218 83.9831 47.5779 77.0028 31.9792C76.3432 30.5186 74.7304 29.0943 74.6797 24.4263Z" fill="#FFD7EF"/>
<path d="M29.8457 93.3828V105.336C29.8457 114.084 33.8034 122.359 40.6133 127.853L40.9177 128.096C51.6853 136.779 67.0919 136.627 77.6819 127.73C84.2273 122.232 88.0037 114.124 88.0037 105.578V95.0826C81.288 99.6817 72.6913 102.443 63.3155 102.443C49.0759 102.443 36.623 102.889 29.8457 93.3828Z" fill="#CA79C6"/>
<path fill-rule="evenodd" clip-rule="evenodd" d="M51.7145 58.114H41.3745C38.6636 58.114 36.4492 55.896 36.4492 53.1887C36.4492 50.4778 38.6672 48.2598 41.3745 48.2598H51.7108C54.4218 48.2598 56.6398 50.4778 56.6398 53.1887C56.6398 55.896 54.4218 58.114 51.7145 58.114Z" fill="white"/>
<path d="M46.5459 58.0411C49.2281 58.0411 51.4024 55.8667 51.4024 53.1846C51.4024 50.5024 49.2281 48.3281 46.5459 48.3281C43.8638 48.3281 41.6895 50.5024 41.6895 53.1846C41.6895 55.8667 43.8638 58.0411 46.5459 58.0411Z" fill="#6B686A"/>
<path fill-rule="evenodd" clip-rule="evenodd" d="M77.5976 58.114H67.2613C64.5503 58.114 62.3359 55.896 62.3359 53.1887C62.3359 50.4778 64.554 48.2598 67.2613 48.2598H77.5976C80.3085 48.2598 82.5265 50.4778 82.5265 53.1887C82.5229 55.896 80.3049 58.114 77.5976 58.114Z" fill="white"/>
<path d="M72.4287 58.0411C75.1109 58.0411 77.2852 55.8667 77.2852 53.1846C77.2852 50.5024 75.1109 48.3281 72.4287 48.3281C69.7466 48.3281 67.5723 50.5024 67.5723 53.1846C67.5723 55.8667 69.7466 58.0411 72.4287 58.0411Z" fill="#6B686A"/>
<path d="M56.7089 67.1191C57.8107 65.9811 59.1371 65.3143 60.5651 65.3143C61.9568 65.3143 63.2542 65.9485 64.3379 67.0358" stroke="white" stroke-width="2.801" stroke-miterlimit="10" stroke-linecap="round"/>
<path d="M39.8981 68.8451C44.0314 68.8451 47.3821 67.1689 47.3821 65.1013C47.3821 63.0336 44.0314 61.3574 39.8981 61.3574C35.7648 61.3574 32.4141 63.0336 32.4141 65.1013C32.4141 67.1689 35.7648 68.8451 39.8981 68.8451Z" fill="#EF6AC7"/>
<path d="M78.6676 68.1263C82.8009 68.1263 86.1517 66.4502 86.1517 64.3825C86.1517 62.3148 82.8009 60.6387 78.6676 60.6387C74.5343 60.6387 71.1836 62.3148 71.1836 64.3825C71.1836 66.4502 74.5343 68.1263 78.6676 68.1263Z" fill="#EF6AC7"/>
<path d="M49.6304 18.3219V12.2368C49.6268 11.5011 49.3731 10.8596 48.8657 10.3269C48.3728 9.81222 47.6443 9.4353 46.8216 9.27583C46.2273 9.15985 45.5894 9.14536 44.9262 9.23959C43.915 9.38456 40.6532 9.74698 39.816 10.3124C39.0223 10.8524 38.3844 11.5591 38.022 12.3021C37.7719 12.8095 37.6523 13.3096 37.6523 13.8242V22.8486C37.9749 22.8703 38.2975 22.8812 38.6236 22.8812C42.8495 22.8812 46.7093 21.1561 49.6304 18.3219Z" fill="#6B686A"/>
<path d="M73.6997 7.14912C73.2068 6.63448 72.482 6.26119 71.6556 6.09809C71.0613 5.98212 68.0966 5.96762 67.4334 6.06185C66.4222 6.20682 65.4872 6.56924 64.65 7.13462C63.8563 7.67463 63.2184 8.38136 62.856 9.12433C62.6059 9.63172 62.4863 10.1319 62.4863 10.6465V18.3117C63.657 18.5981 64.8783 18.7539 66.1287 18.7539C69.2238 18.7539 72.1195 17.8297 74.5985 16.2206C74.5188 10.4073 74.468 9.05547 74.468 9.05547C74.4608 8.32337 74.2035 7.68188 73.6997 7.14912Z" fill="#6B686A"/>
<path d="M28.9989 76.4191C28.9989 76.4191 35.8302 80.6107 54.1429 75.1594" stroke="#6B686A" stroke-width="3" stroke-miterlimit="10" stroke-linecap="round"/>
<path d="M54.0603 78.4813C46.1837 77.0846 52.6154 71.8987 52.6154 71.8987" stroke="#6B686A" stroke-width="3" stroke-miterlimit="10" stroke-linecap="round"/>
<path d="M89 78.2656C89 78.2656 81.7835 81.7523 64.1084 74.4951" stroke="#6B686A" stroke-width="3" stroke-miterlimit="10" stroke-linecap="round"/>
<path d="M63.8587 77.8102C71.8355 77.209 65.9553 71.4053 65.9553 71.4053" stroke="#6B686A" stroke-width="3" stroke-miterlimit="10" stroke-linecap="round"/>
<path d="M54.5586 41.6319C54.5586 41.5034 54.6546 41.3951 54.7822 41.3798L58.5026 40.9334C58.9061 40.8849 59.3137 40.8816 59.7179 40.9234L64.2268 41.3899C64.3594 41.4036 64.4601 41.5153 64.4601 41.6486C64.4601 41.8094 64.3098 41.9405 64.1384 41.9085C60.5864 41.246 58.2643 41.1979 54.8845 41.8872C54.71 41.9228 54.5586 41.79 54.5586 41.6319Z" fill="#A8A8A8" stroke="#6B686A"/>
<circle cx="43.1567" cy="49.8461" r="13.9203" stroke="#6B686A" stroke-width="2"/>
<circle cx="75.4574" cy="49.8461" r="13.9203" stroke="#6B686A" stroke-width="2"/>
<path d="M36.4219 45.49C38.841 45.8495 44.9493 45.3821 50.0294 40.6367" stroke="#6B686A" stroke-width="2" stroke-linecap="round" stroke-linejoin="round"/>
<path d="M82.1934 45.49C79.7742 45.8495 73.666 45.3821 68.5858 40.6367" stroke="#6B686A" stroke-width="2" stroke-linecap="round" stroke-linejoin="round"/>
</g>
</svg>
