<svg width="24" height="24" viewBox="0 0 24 24" fill="none" xmlns="http://www.w3.org/2000/svg">
<path d="M15.58 12.0019C15.58 13.9819 13.98 15.5819 12 15.5819C10.02 15.5819 8.42001 13.9819 8.42001 12.0019C8.42001 10.0219 10.02 8.42188 12 8.42188C13.98 8.42188 15.58 10.0219 15.58 12.0019Z" stroke="#271E4A" stroke-width="1.5" stroke-linecap="round" stroke-linejoin="round"/>
<path d="M12 20.2688C15.53 20.2688 18.82 18.1887 21.11 14.5887C22.01 13.1787 22.01 10.8087 21.11 9.39875C18.82 5.79875 15.53 3.71875 12 3.71875C8.47 3.71875 5.18 5.79875 2.89 9.39875C1.99 10.8087 1.99 13.1787 2.89 14.5887C5.18 18.1887 8.47 20.2688 12 20.2688Z" stroke="#271E4A" stroke-width="1.5" stroke-linecap="round" stroke-linejoin="round"/>
</svg>
