<svg width="68" height="68" viewBox="0 0 68 68" fill="none" xmlns="http://www.w3.org/2000/svg">
<path d="M50.9996 20.288C50.8296 20.2596 50.6312 20.2596 50.4612 20.288C46.5512 20.1463 43.4346 16.9446 43.4346 12.978C43.4346 8.92631 46.6929 5.66797 50.7446 5.66797C54.7962 5.66797 58.0546 8.95464 58.0546 12.978C58.0262 16.9446 54.9096 20.1463 50.9996 20.288Z" stroke="#292D32" stroke-width="2.5" stroke-linecap="round" stroke-linejoin="round"/>
<path d="M48.0811 40.9151C51.9628 41.5668 56.2411 40.8868 59.2444 38.8751C63.2394 36.2118 63.2394 31.8484 59.2444 29.1851C56.2128 27.1734 51.8778 26.4934 47.9961 27.1734" stroke="#292D32" stroke-width="2.5" stroke-linecap="round" stroke-linejoin="round"/>
<path d="M16.9154 20.288C17.0854 20.2596 17.2837 20.2596 17.4537 20.288C21.3637 20.1463 24.4804 16.9446 24.4804 12.978C24.4804 8.92631 21.222 5.66797 17.1704 5.66797C13.1187 5.66797 9.86035 8.95464 9.86035 12.978C9.88868 16.9446 13.0054 20.1463 16.9154 20.288Z" stroke="#292D32" stroke-width="2.5" stroke-linecap="round" stroke-linejoin="round"/>
<path d="M19.8334 40.9151C15.9517 41.5668 11.6734 40.8868 8.67008 38.8751C4.67508 36.2118 4.67508 31.8484 8.67008 29.1851C11.7017 27.1734 16.0367 26.4934 19.9184 27.1734" stroke="#292D32" stroke-width="2.5" stroke-linecap="round" stroke-linejoin="round"/>
<path d="M33.9996 41.452C33.8296 41.4237 33.6312 41.4237 33.4612 41.452C29.5512 41.3104 26.4346 38.1087 26.4346 34.142C26.4346 30.0904 29.6929 26.832 33.7446 26.832C37.7962 26.832 41.0546 30.1187 41.0546 34.142C41.0262 38.1087 37.9096 41.3387 33.9996 41.452Z" stroke="#292D32" stroke-width="2.5" stroke-linecap="round" stroke-linejoin="round"/>
<path d="M25.755 50.3775C21.76 53.0408 21.76 57.4042 25.755 60.0675C30.2884 63.0992 37.7117 63.0992 42.245 60.0675C46.24 57.4042 46.24 53.0408 42.245 50.3775C37.74 47.3742 30.2884 47.3742 25.755 50.3775Z" stroke="#292D32" stroke-width="2.5" stroke-linecap="round" stroke-linejoin="round"/>
</svg>
