<svg width="36" height="36" viewBox="0 0 36 36" fill="none" xmlns="http://www.w3.org/2000/svg">
<path d="M2.99414 12.75H17.2441" stroke="#292D32" stroke-width="2" stroke-miterlimit="10" stroke-linecap="round" stroke-linejoin="round"/>
<path d="M8.99414 24.75H11.9941" stroke="#292D32" stroke-width="2" stroke-miterlimit="10" stroke-linecap="round" stroke-linejoin="round"/>
<path d="M15.7441 24.75H21.7441" stroke="#292D32" stroke-width="2" stroke-miterlimit="10" stroke-linecap="round" stroke-linejoin="round"/>
<path d="M32.9941 18.045V24.165C32.9941 29.43 31.6591 30.75 26.3341 30.75H9.65414C4.32914 30.75 2.99414 29.43 2.99414 24.165V11.835C2.99414 6.57 4.32914 5.25 9.65414 5.25H21.7441" stroke="#292D32" stroke-width="2" stroke-linecap="round" stroke-linejoin="round"/>
<path d="M28.6143 6.19497L23.0493 11.76C22.8393 11.97 22.6293 12.39 22.5843 12.69L22.2843 14.82C22.1793 15.585 22.7193 16.125 23.4843 16.02L25.6143 15.72C25.9143 15.675 26.3343 15.465 26.5443 15.255L32.1093 9.68997C33.0693 8.72997 33.5193 7.61997 32.1093 6.20997C30.6843 4.78497 29.5743 5.23497 28.6143 6.19497Z" stroke="#292D32" stroke-width="1.5" stroke-miterlimit="10" stroke-linecap="round" stroke-linejoin="round"/>
<path d="M27.8191 6.98828C28.2991 8.68328 29.6191 10.0033 31.2991 10.4683" stroke="#292D32" stroke-width="1.5" stroke-miterlimit="10" stroke-linecap="round" stroke-linejoin="round"/>
</svg>
