<svg width="24" height="24" viewBox="0 0 24 24" fill="none" xmlns="http://www.w3.org/2000/svg">
<path d="M15.5799 12.0019C15.5799 13.9819 13.9799 15.5819 11.9999 15.5819C10.0199 15.5819 8.41992 13.9819 8.41992 12.0019C8.41992 10.0219 10.0199 8.42188 11.9999 8.42188C13.9799 8.42188 15.5799 10.0219 15.5799 12.0019Z" stroke="#271E4A" stroke-width="1.5" stroke-linecap="round" stroke-linejoin="round"/>
<path d="M12.0001 20.2688C15.5301 20.2688 18.8201 18.1887 21.1101 14.5887C22.0101 13.1787 22.0101 10.8087 21.1101 9.39875C18.8201 5.79875 15.5301 3.71875 12.0001 3.71875C8.47009 3.71875 5.18009 5.79875 2.89009 9.39875C1.99009 10.8087 1.99009 13.1787 2.89009 14.5887C5.18009 18.1887 8.47009 20.2688 12.0001 20.2688Z" stroke="#271E4A" stroke-width="1.5" stroke-linecap="round" stroke-linejoin="round"/>
</svg>
