<svg width="25" height="24" viewBox="0 0 25 24" fill="none" xmlns="http://www.w3.org/2000/svg">
<path d="M16.0799 12.0019C16.0799 13.9819 14.4799 15.5819 12.4999 15.5819C10.5199 15.5819 8.91992 13.9819 8.91992 12.0019C8.91992 10.0219 10.5199 8.42188 12.4999 8.42188C14.4799 8.42188 16.0799 10.0219 16.0799 12.0019Z" stroke="#271E4A" stroke-width="1.5" stroke-linecap="round" stroke-linejoin="round"/>
<path d="M12.4998 20.2688C16.0298 20.2688 19.3198 18.1887 21.6098 14.5887C22.5098 13.1787 22.5098 10.8087 21.6098 9.39875C19.3198 5.79875 16.0298 3.71875 12.4998 3.71875C8.96984 3.71875 5.67984 5.79875 3.38984 9.39875C2.48984 10.8087 2.48984 13.1787 3.38984 14.5887C5.67984 18.1887 8.96984 20.2688 12.4998 20.2688Z" stroke="#271E4A" stroke-width="1.5" stroke-linecap="round" stroke-linejoin="round"/>
</svg>
