<svg width="16" height="16" viewBox="0 0 16 16" fill="none" xmlns="http://www.w3.org/2000/svg">
<path d="M7.33301 1.33203H5.99967C2.66634 1.33203 1.33301 2.66536 1.33301 5.9987V9.9987C1.33301 13.332 2.66634 14.6654 5.99967 14.6654H9.99967C13.333 14.6654 14.6663 13.332 14.6663 9.9987V8.66536" stroke="#292D32" stroke-linecap="round" stroke-linejoin="round"/>
<path d="M10.6933 2.01155L5.43992 7.26488C5.23992 7.46488 5.03992 7.85822 4.99992 8.14488L4.71325 10.1515C4.60659 10.8782 5.11992 11.3849 5.84659 11.2849L7.85325 10.9982C8.13325 10.9582 8.52659 10.7582 8.73325 10.5582L13.9866 5.30488C14.8933 4.39822 15.3199 3.34488 13.9866 2.01155C12.6533 0.678215 11.5999 1.10488 10.6933 2.01155Z" stroke="#292D32" stroke-miterlimit="10" stroke-linecap="round" stroke-linejoin="round"/>
<path d="M9.94043 2.76562C10.3871 4.35896 11.6338 5.60562 13.2338 6.05896" stroke="#292D32" stroke-miterlimit="10" stroke-linecap="round" stroke-linejoin="round"/>
</svg>
