<svg width="68" height="68" viewBox="0 0 68 68" fill="none" xmlns="http://www.w3.org/2000/svg">
<path d="M52.4163 55.25H41.083" stroke="#292D32" stroke-width="2.5" stroke-linecap="round" stroke-linejoin="round"/>
<path d="M46.75 60.9154V49.582" stroke="#292D32" stroke-width="2.5" stroke-linecap="round" stroke-linejoin="round"/>
<path d="M34.4534 30.7996C34.17 30.7713 33.83 30.7713 33.5184 30.7996C26.775 30.573 21.42 25.048 21.42 18.248C21.3917 11.3063 27.03 5.66797 33.9717 5.66797C40.9134 5.66797 46.5517 11.3063 46.5517 18.248C46.5517 25.048 41.1684 30.573 34.4534 30.7996Z" stroke="#292D32" stroke-width="2.5" stroke-linecap="round" stroke-linejoin="round"/>
<path d="M33.9713 61.7954C28.8146 61.7954 23.6863 60.4921 19.7763 57.8854C12.9196 53.2954 12.9196 45.8154 19.7763 41.2537C27.568 36.0404 40.3463 36.0404 48.138 41.2537" stroke="#292D32" stroke-width="2.5" stroke-linecap="round" stroke-linejoin="round"/>
</svg>
