<svg width="25" height="25" viewBox="0 0 25 25" fill="none" xmlns="http://www.w3.org/2000/svg">
<path d="M15.03 9.97188L9.97004 15.0319C9.32004 14.3819 8.92004 13.4919 8.92004 12.5019C8.92004 10.5219 10.52 8.92188 12.5 8.92188C13.49 8.92188 14.38 9.32188 15.03 9.97188Z" stroke="#271E4A" stroke-width="1.5" stroke-linecap="round" stroke-linejoin="round"/>
<path d="M18.32 6.27047C16.57 4.95047 14.57 4.23047 12.5 4.23047C8.96997 4.23047 5.67997 6.31047 3.38997 9.91047C2.48997 11.3205 2.48997 13.6905 3.38997 15.1005C4.17997 16.3405 5.09997 17.4105 6.09997 18.2705" stroke="#271E4A" stroke-width="1.5" stroke-linecap="round" stroke-linejoin="round"/>
<path d="M8.92004 20.0297C10.06 20.5097 11.27 20.7697 12.5 20.7697C16.03 20.7697 19.32 18.6897 21.61 15.0897C22.51 13.6797 22.51 11.3097 21.61 9.89969C21.28 9.37969 20.92 8.88969 20.55 8.42969" stroke="#292D32" stroke-width="1.5" stroke-linecap="round" stroke-linejoin="round"/>
<path d="M16.0099 13.1992C15.7499 14.6092 14.5999 15.7592 13.1899 16.0192" stroke="#292D32" stroke-width="1.5" stroke-linecap="round" stroke-linejoin="round"/>
<path d="M9.97 15.0312L2.5 22.5013" stroke="#292D32" stroke-width="1.5" stroke-linecap="round" stroke-linejoin="round"/>
<path d="M22.5 2.5L15.03 9.97" stroke="#292D32" stroke-width="1.5" stroke-linecap="round" stroke-linejoin="round"/>
</svg>
