<svg width="25" height="25" viewBox="0 0 25 25" fill="none" xmlns="http://www.w3.org/2000/svg">
<path d="M16.08 12.5019C16.08 14.4819 14.48 16.0819 12.5 16.0819C10.52 16.0819 8.92004 14.4819 8.92004 12.5019C8.92004 10.5219 10.52 8.92188 12.5 8.92188C14.48 8.92188 16.08 10.5219 16.08 12.5019Z" stroke="#271E4A" stroke-width="1.5" stroke-linecap="round" stroke-linejoin="round"/>
<path d="M12.5 20.7688C16.03 20.7688 19.32 18.6887 21.61 15.0887C22.51 13.6787 22.51 11.3087 21.61 9.89875C19.32 6.29875 16.03 4.21875 12.5 4.21875C8.96997 4.21875 5.67997 6.29875 3.38997 9.89875C2.48997 11.3087 2.48997 13.6787 3.38997 15.0887C5.67997 18.6887 8.96997 20.7688 12.5 20.7688Z" stroke="#271E4A" stroke-width="1.5" stroke-linecap="round" stroke-linejoin="round"/>
</svg>
