<svg width="68" height="68" viewBox="0 0 68 68" fill="none" xmlns="http://www.w3.org/2000/svg">
<path d="M51.0005 20.288C50.8305 20.2596 50.6322 20.2596 50.4622 20.288C46.5522 20.1463 43.4355 16.9446 43.4355 12.978C43.4355 8.92631 46.6939 5.66797 50.7455 5.66797C54.7972 5.66797 58.0555 8.95464 58.0555 12.978C58.0272 16.9446 54.9105 20.1463 51.0005 20.288Z" stroke="#292D32" stroke-width="2.5" stroke-linecap="round" stroke-linejoin="round"/>
<path d="M48.0831 40.9151C51.9647 41.5668 56.2431 40.8868 59.2464 38.8751C63.2414 36.2118 63.2414 31.8484 59.2464 29.1851C56.2147 27.1734 51.8797 26.4934 47.998 27.1734" stroke="#292D32" stroke-width="2.5" stroke-linecap="round" stroke-linejoin="round"/>
<path d="M16.9144 20.288C17.0844 20.2596 17.2827 20.2596 17.4527 20.288C21.3627 20.1463 24.4794 16.9446 24.4794 12.978C24.4794 8.92631 21.221 5.66797 17.1694 5.66797C13.1177 5.66797 9.85938 8.95464 9.85938 12.978C9.88771 16.9446 13.0044 20.1463 16.9144 20.288Z" stroke="#292D32" stroke-width="2.5" stroke-linecap="round" stroke-linejoin="round"/>
<path d="M19.8334 40.9151C15.9517 41.5668 11.6734 40.8868 8.67008 38.8751C4.67508 36.2118 4.67508 31.8484 8.67008 29.1851C11.7017 27.1734 16.0367 26.4934 19.9184 27.1734" stroke="#292D32" stroke-width="2.5" stroke-linecap="round" stroke-linejoin="round"/>
<path d="M33.9986 41.452C33.8286 41.4237 33.6303 41.4237 33.4603 41.452C29.5503 41.3104 26.4336 38.1087 26.4336 34.142C26.4336 30.0904 29.6919 26.832 33.7436 26.832C37.7953 26.832 41.0536 30.1187 41.0536 34.142C41.0253 38.1087 37.9086 41.3387 33.9986 41.452Z" stroke="#292D32" stroke-width="2.5" stroke-linecap="round" stroke-linejoin="round"/>
<path d="M25.7541 50.3775C21.7591 53.0408 21.7591 57.4042 25.7541 60.0675C30.2874 63.0992 37.7107 63.0992 42.2441 60.0675C46.2391 57.4042 46.2391 53.0408 42.2441 50.3775C37.7391 47.3742 30.2874 47.3742 25.7541 50.3775Z" stroke="#292D32" stroke-width="2.5" stroke-linecap="round" stroke-linejoin="round"/>
</svg>
