<svg width="25" height="24" viewBox="0 0 25 24" fill="none" xmlns="http://www.w3.org/2000/svg">
<path d="M15.0299 9.47188L9.96992 14.5319C9.31992 13.8819 8.91992 12.9919 8.91992 12.0019C8.91992 10.0219 10.5199 8.42188 12.4999 8.42188C13.4899 8.42188 14.3799 8.82188 15.0299 9.47188Z" stroke="#271E4A" stroke-width="1.5" stroke-linecap="round" stroke-linejoin="round"/>
<path d="M18.3201 5.77047C16.5701 4.45047 14.5701 3.73047 12.5001 3.73047C8.97009 3.73047 5.68009 5.81047 3.39009 9.41047C2.49009 10.8205 2.49009 13.1905 3.39009 14.6005C4.18009 15.8405 5.10009 16.9105 6.10009 17.7705" stroke="#271E4A" stroke-width="1.5" stroke-linecap="round" stroke-linejoin="round"/>
<path d="M8.91992 19.5297C10.0599 20.0097 11.2699 20.2697 12.4999 20.2697C16.0299 20.2697 19.3199 18.1897 21.6099 14.5897C22.5099 13.1797 22.5099 10.8097 21.6099 9.39969C21.2799 8.87969 20.9199 8.38969 20.5499 7.92969" stroke="#292D32" stroke-width="1.5" stroke-linecap="round" stroke-linejoin="round"/>
<path d="M16.0099 12.6992C15.7499 14.1092 14.5999 15.2592 13.1899 15.5192" stroke="#292D32" stroke-width="1.5" stroke-linecap="round" stroke-linejoin="round"/>
<path d="M9.97 14.5312L2.5 22.0013" stroke="#292D32" stroke-width="1.5" stroke-linecap="round" stroke-linejoin="round"/>
<path d="M22.5 2L15.03 9.47" stroke="#292D32" stroke-width="1.5" stroke-linecap="round" stroke-linejoin="round"/>
</svg>
