<svg width="36" height="36" viewBox="0 0 36 36" fill="none" xmlns="http://www.w3.org/2000/svg">
<path d="M2.99414 12.75H17.2441" stroke="#292D32" stroke-width="2" stroke-miterlimit="10" stroke-linecap="round" stroke-linejoin="round"/>
<path d="M8.99414 24.75H11.9941" stroke="#292D32" stroke-width="2" stroke-miterlimit="10" stroke-linecap="round" stroke-linejoin="round"/>
<path d="M15.7441 24.75H21.7441" stroke="#292D32" stroke-width="2" stroke-miterlimit="10" stroke-linecap="round" stroke-linejoin="round"/>
<path d="M32.9941 18.045V24.165C32.9941 29.43 31.6591 30.75 26.3341 30.75H9.65414C4.32914 30.75 2.99414 29.43 2.99414 24.165V11.835C2.99414 6.57 4.32914 5.25 9.65414 5.25H21.7441" stroke="#292D32" stroke-width="2" stroke-linecap="round" stroke-linejoin="round"/>
<path d="M28.6141 6.19497L23.0491 11.76C22.8391 11.97 22.6291 12.39 22.5841 12.69L22.2841 14.82C22.1791 15.585 22.7191 16.125 23.4841 16.02L25.6141 15.72C25.9141 15.675 26.3341 15.465 26.5441 15.255L32.1091 9.68997C33.0691 8.72997 33.5191 7.61997 32.1091 6.20997C30.6841 4.78497 29.5741 5.23497 28.6141 6.19497Z" stroke="#292D32" stroke-width="1.5" stroke-miterlimit="10" stroke-linecap="round" stroke-linejoin="round"/>
<path d="M27.8193 6.98828C28.2993 8.68328 29.6193 10.0033 31.2993 10.4683" stroke="#292D32" stroke-width="1.5" stroke-miterlimit="10" stroke-linecap="round" stroke-linejoin="round"/>
</svg>
